# xmcd CD database file
#
# Track frame offsets:
#	150
#	32425
#	44685
#	57770
#	76750
#	95717
#	108322
#	130929
#	153777
#	169937
#	189747
#	204109
#	219712
#	237097
#	256915
#	273502
#	295820
#	309325
#
# Disc length: 4373 seconds
#
# Revision: 3
# Processed by: cddbd v1.5.2PL0 Copyright (c) Steve Scherf et al.
# Submitted via: CDex 1.50Beta5
#
DISCID=f5111312
DTITLE=Clapton, Eric - The Cream Of Clapton
DYEAR=1994
DGENRE=Rhythm and Blues
TTITLE0=Layla
TTITLE1=Badge
TTITLE2=I Feel Free
TTITLE3=Sunshine Of Your Love
TTITLE4=Crossroads
TTITLE5=Strange Brew
TTITLE6=White Room
TTITLE7=Bell Bottom Blues
TTITLE8=Cocaine
TTITLE9=I Shot The Sheriff
TTITLE10=After Midnight
TTITLE11=Swing Love Sweet Chariot
TTITLE12=Lay Down Sally
TTITLE13=Knockin' On Heavens Door
TTITLE14=Wonderful Tonight
TTITLE15=Let It Grow
TTITLE16=Promises
TTITLE17=I Can't Stand It
EXTD=YEAR: 1994
EXTT0=
EXTT1=
EXTT2=
EXTT3=
EXTT4=
EXTT5=
EXTT6=
EXTT7=
EXTT8=
EXTT9=
EXTT10=
EXTT11=
EXTT12=
EXTT13=
EXTT14=
EXTT15=
EXTT16=
EXTT17=
PLAYORDER=
